<?xml version="1.0" encoding="utf-8"?>
<!-- Generator: Adobe Illustrator 16.0.0, SVG Export Plug-In . SVG Version: 6.00 Build 0)  -->
<!DOCTYPE svg PUBLIC "-//W3C//DTD SVG 1.1//EN" "http://www.w3.org/Graphics/SVG/1.1/DTD/svg11.dtd">
<svg version="1.1" id="Layer_1" xmlns="http://www.w3.org/2000/svg" xmlns:xlink="http://www.w3.org/1999/xlink" x="0px" y="0px"
	 width="1200px" height="1200px" viewBox="0 0 1200 1200" enable-background="new 0 0 1200 1200" xml:space="preserve">
<path fill="#FFE812" d="M1175,1085.156c0,49.621-40.223,89.844-89.844,89.844H114.843C65.222,1175,25,1134.777,25,1085.156V114.844
	C25,65.223,65.222,25,114.843,25h970.313c49.621,0,89.844,40.223,89.844,89.844V1085.156L1175,1085.156z"/>
<path d="M600,186.719c-258.021,0-467.188,164.922-467.188,368.359c0,131.525,87.444,246.936,218.984,312.104
	c-7.156,24.682-45.986,158.772-47.532,169.308c0,0-0.93,7.915,4.196,10.934s11.154,0.674,11.154,0.674
	c14.697-2.053,170.447-111.456,197.404-130.453c26.932,3.813,54.661,5.796,82.979,5.796c258.023,0,467.189-164.918,467.189-368.359
	C1067.188,351.641,858.021,186.719,600,186.719L600,186.719z"/>
<path fill="#FFE812" d="M341.699,683.667c-14.865,0-26.953-11.545-26.953-25.74V497.803h-42.057
	c-14.586,0-26.449-11.841-26.449-26.392s11.867-26.392,26.449-26.392h138.019c14.586,0,26.45,11.841,26.45,26.392
	s-11.868,26.392-26.45,26.392h-42.056v160.124C368.652,672.122,356.564,683.667,341.699,683.667z M578.042,683.316
	c-11.239,0-19.837-4.563-22.429-11.904l-13.346-34.94l-82.189-0.004l-13.355,34.963c-2.582,7.326-11.177,11.887-22.416,11.887
	c-5.911,0.006-11.756-1.264-17.133-3.721c-7.43-3.427-14.572-12.852-6.388-38.272l64.472-169.696
	c4.542-12.906,18.338-26.203,35.894-26.603c17.604,0.396,31.399,13.696,35.951,26.63l64.443,169.621
	c8.203,25.479,1.063,34.907-6.37,38.327C589.796,682.055,583.954,683.321,578.042,683.316
	C578.038,683.316,578.042,683.316,578.042,683.316L578.042,683.316z M528.093,588.729l-26.922-76.479l-26.922,76.479H528.093z
	 M644.922,679.736c-14.246,0-25.83-11.088-25.83-24.707V471.972c0-14.864,12.346-26.953,27.516-26.953s27.514,12.089,27.514,26.953
	v158.351h57.275c14.246,0,25.83,11.087,25.83,24.707c0,13.619-11.584,24.707-25.83,24.707H644.922z M794.664,683.316
	c-14.865,0-26.953-12.088-26.953-26.953V471.972c0-14.864,12.088-26.952,26.953-26.952s26.953,12.088,26.953,26.952v57.932
	l75.199-75.199c3.867-3.868,9.182-5.997,14.949-5.997c6.729,0,13.484,2.902,18.549,7.96c4.721,4.717,7.537,10.786,7.924,17.088
	c0.391,6.356-1.725,12.184-5.947,16.41l-61.422,61.413l66.346,87.895c4.326,5.694,6.191,12.888,5.174,19.968
	c-0.969,7.085-4.734,13.485-10.457,17.774c-4.66,3.543-10.357,5.455-16.213,5.44c-8.469,0.039-16.455-3.936-21.531-10.714
	l-63.209-83.752l-9.352,9.353v58.808C821.609,671.234,809.549,683.297,794.664,683.316L794.664,683.316z"/>
</svg>
